<?xml version="1.0" encoding="UTF-8"?>
<!DOCTYPE svg PUBLIC "-//W3C//DTD SVG 1.1//EN" "http://www.w3.org/Graphics/SVG/1.1/DTD/svg11.dtd">
<svg xmlns="http://www.w3.org/2000/svg" version="1.1" width="1200px" height="900px" style="shape-rendering:geometricPrecision; text-rendering:geometricPrecision; image-rendering:optimizeQuality; fill-rule:evenodd; clip-rule:evenodd" xmlns:xlink="http://www.w3.org/1999/xlink">
<g><path style="opacity:1" fill="#fefeff" d="M -0.5,-0.5 C 399.5,-0.5 799.5,-0.5 1199.5,-0.5C 1199.5,299.5 1199.5,599.5 1199.5,899.5C 799.5,899.5 399.5,899.5 -0.5,899.5C -0.5,599.5 -0.5,299.5 -0.5,-0.5 Z"/></g>
<g><path style="opacity:1" fill="#36adfe" d="M 959.5,220.5 C 945.86,259.366 932.36,298.366 919,337.5C 917.493,338.535 915.993,338.368 914.5,337C 900.269,327.719 885.603,319.219 870.5,311.5C 870.631,310.624 870.298,309.957 869.5,309.5C 863.63,305.8 857.63,302.3 851.5,299C 849.993,298.163 849.493,296.996 850,295.5C 884.726,262.272 919.226,228.939 953.5,195.5C 958.911,190.591 964.245,185.425 969.5,180C 923.248,213.153 877.581,247.32 832.5,282.5C 816.96,273.897 801.294,265.564 785.5,257.5C 780.861,254.845 776.194,252.179 771.5,249.5C 838.619,224.738 905.785,200.071 973,175.5C 973.5,175.667 974,175.833 974.5,176C 969.577,190.859 964.577,205.692 959.5,220.5 Z"/></g>
<g><path style="opacity:1" fill="#2091e0" d="M 953.5,195.5 C 952.078,195.709 950.745,196.209 949.5,197C 914.132,229.37 878.465,261.37 842.5,293C 839.935,295.08 837.268,296.913 834.5,298.5C 833.761,293.18 833.094,287.846 832.5,282.5C 877.581,247.32 923.248,213.153 969.5,180C 964.245,185.425 958.911,190.591 953.5,195.5 Z"/></g>
<g><path style="opacity:1" fill="#f1fafe" d="M 1028.5,682.5 C 949.541,681.506 870.541,681.173 791.5,681.5C 791.833,680.833 792.167,680.167 792.5,679.5C 795.661,676.525 797.828,672.858 799,668.5C 799.832,604.999 799.665,541.665 798.5,478.5C 789.833,470.833 781.167,463.167 772.5,455.5C 771.838,408.402 771.171,361.402 770.5,314.5C 757.194,300.86 743.861,287.193 730.5,273.5C 746.446,268.24 762.446,263.074 778.5,258C 781.063,257.874 783.396,257.707 785.5,257.5C 801.294,265.564 816.96,273.897 832.5,282.5C 833.094,287.846 833.761,293.18 834.5,298.5C 836.838,316.212 839.505,333.879 842.5,351.5C 852.248,338.425 861.581,325.092 870.5,311.5C 885.603,319.219 900.269,327.719 914.5,337C 915.993,338.368 917.493,338.535 919,337.5C 932.36,298.366 945.86,259.366 959.5,220.5C 960.11,222.85 960.444,222.517 960.5,219.5C 1005.41,225.027 1039.58,247.027 1063,285.5C 1084.29,325.423 1094.45,368.089 1093.5,413.5C 1093.77,454.223 1086.6,493.557 1072,531.5C 1064.6,545.961 1056.94,560.294 1049,574.5C 1037.95,596.97 1030.95,620.637 1028,645.5C 1026.97,656.973 1027.81,668.306 1030.5,679.5C 1030.06,680.739 1029.39,681.739 1028.5,682.5 Z"/></g>
<g><path style="opacity:1" fill="#2b9eee" d="M 953.5,195.5 C 919.226,228.939 884.726,262.272 850,295.5C 849.493,296.996 849.993,298.163 851.5,299C 857.63,302.3 863.63,305.8 869.5,309.5C 870.298,309.957 870.631,310.624 870.5,311.5C 861.581,325.092 852.248,338.425 842.5,351.5C 839.505,333.879 836.838,316.212 834.5,298.5C 837.268,296.913 839.935,295.08 842.5,293C 878.465,261.37 914.132,229.37 949.5,197C 950.745,196.209 952.078,195.709 953.5,195.5 Z"/></g>
<g><path style="opacity:1" fill="#f1fbfe" d="M 452.5,323.5 C 452.828,366.906 452.494,410.239 451.5,453.5C 441.179,461.822 431.179,470.489 421.5,479.5C 421.333,542.168 421.5,604.834 422,667.5C 423.138,672.443 425.305,676.776 428.5,680.5C 350.167,681.167 271.833,681.833 193.5,682.5C 190.285,682.905 187.285,683.905 184.5,685.5C 150.14,593.064 125.307,498.064 110,400.5C 105.595,369.268 104.595,337.935 107,306.5C 114.356,233.909 152.523,209.409 221.5,233C 251.617,245.39 280.284,260.39 307.5,278C 352.707,303.217 401.041,318.384 452.5,323.5 Z"/></g>
<g><path style="opacity:1" fill="#e4f2f6" d="M 688.5,231.5 C 687.338,250.329 687.171,269.329 688,288.5C 691.055,302.143 699.222,310.977 712.5,315C 732.004,315.829 751.338,315.662 770.5,314.5C 771.171,361.402 771.838,408.402 772.5,455.5C 772.167,455.5 771.833,455.5 771.5,455.5C 770.669,468.994 770.169,482.661 770,496.5C 736.662,516.363 703.496,536.363 670.5,556.5C 650.494,568.177 630.494,579.843 610.5,591.5C 590.182,580.342 570.182,568.676 550.5,556.5C 539.763,549.775 528.763,543.442 517.5,537.5C 518.268,519.493 519.768,501.493 522,483.5C 523.371,485.041 524.871,486.375 526.5,487.5C 539.343,499.439 554.343,505.439 571.5,505.5C 574.884,505.34 578.217,505.673 581.5,506.5C 583.516,505.822 585.516,505.156 587.5,504.5C 611.738,508.424 634.405,504.257 655.5,492C 660.311,489.015 664.644,485.515 668.5,481.5C 676.494,475.163 682.827,467.496 687.5,458.5C 692.015,449.957 695.348,440.957 697.5,431.5C 700.684,416.52 700.017,401.853 695.5,387.5C 692.928,377.023 688.261,367.689 681.5,359.5C 663.091,333.512 637.757,320.512 605.5,320.5C 573.765,321.53 548.765,334.863 530.5,360.5C 526.725,365.715 523.725,371.382 521.5,377.5C 519.733,379.792 518.733,382.458 518.5,385.5C 518.167,385.5 517.833,385.5 517.5,385.5C 515.771,386.117 514.271,387.117 513,388.5C 511.936,391.799 511.102,395.132 510.5,398.5C 501.908,414.076 494.741,430.409 489,447.5C 483.84,468.474 479.007,489.474 474.5,510.5C 467.167,506.167 459.833,501.833 452.5,497.5C 452.829,482.657 452.496,467.99 451.5,453.5C 452.494,410.239 452.828,366.906 452.5,323.5C 452.333,301.497 452.5,279.497 453,257.5C 456.613,242.887 465.779,234.054 480.5,231C 550.001,230.168 619.335,230.335 688.5,231.5 Z"/></g>
<g><path style="opacity:1" fill="#d9eaf4" d="M 688.5,231.5 C 702.14,245.806 716.14,259.806 730.5,273.5C 743.861,287.193 757.194,300.86 770.5,314.5C 751.338,315.662 732.004,315.829 712.5,315C 699.222,310.977 691.055,302.143 688,288.5C 687.171,269.329 687.338,250.329 688.5,231.5 Z"/></g>
<g><path style="opacity:1" fill="#93d4ff" d="M 304.5,320.5 C 357.71,317.565 390.544,341.898 403,393.5C 405.549,429.398 392.216,457.732 363,478.5C 361.438,480.957 360.438,483.624 360,486.5C 360.281,493.854 360.114,501.187 359.5,508.5C 350.338,502.085 341.005,495.918 331.5,490C 286.205,492.623 255.039,473.123 238,431.5C 227.171,391.346 238.338,358.846 271.5,334C 281.768,327.418 292.768,322.918 304.5,320.5 Z"/></g>
<g><path style="opacity:1" fill="#42bb2c" d="M 681.5,359.5 C 681.389,360.117 681.056,360.617 680.5,361C 631.257,361.715 582.09,361.215 533,359.5C 532.085,360.328 531.419,361.328 531,362.5C 530.536,361.906 530.369,361.239 530.5,360.5C 548.765,334.863 573.765,321.53 605.5,320.5C 637.757,320.512 663.091,333.512 681.5,359.5 Z"/></g>
<g><path style="opacity:1" fill="#38aeff" d="M 306.5,353.5 C 313.67,352.339 317.003,355.339 316.5,362.5C 312.325,362.188 308.325,362.855 304.5,364.5C 302.814,360.263 303.481,356.596 306.5,353.5 Z"/></g>
<g><path style="opacity:1" fill="#a4d5ff" d="M 818.5,355.5 C 820.655,355.372 822.655,355.872 824.5,357C 822.924,359.951 822.257,363.117 822.5,366.5C 820.5,366.5 818.5,366.5 816.5,366.5C 817.06,362.807 817.727,359.14 818.5,355.5 Z"/></g>
<g><path style="opacity:1" fill="#36aeff" d="M 310.5,366.5 C 325.197,365.375 335.03,371.709 340,385.5C 341.167,394.855 344.167,403.521 349,411.5C 353.417,413.327 355.584,416.66 355.5,421.5C 333.738,425.024 312.071,429.024 290.5,433.5C 290.38,431.801 290.046,430.135 289.5,428.5C 292.917,423.395 294.25,417.729 293.5,411.5C 292.339,402.863 291.839,394.196 292,385.5C 295.017,375.984 301.184,369.651 310.5,366.5 Z"/></g>
<g><path style="opacity:1" fill="#4bc036" d="M 681.5,359.5 C 688.261,367.689 692.928,377.023 695.5,387.5C 694.908,390.127 694.575,392.794 694.5,395.5C 681.251,395.41 668.584,395.41 656.5,395.5C 657.793,393.704 659.293,392.037 661,390.5C 660.578,385.712 658.078,382.212 653.5,380C 651.735,379.36 650.068,379.527 648.5,380.5C 605.786,379.829 563.453,378.829 521.5,377.5C 523.725,371.382 526.725,365.715 530.5,360.5C 530.369,361.239 530.536,361.906 531,362.5C 531.419,361.328 532.085,360.328 533,359.5C 582.09,361.215 631.257,361.715 680.5,361C 681.056,360.617 681.389,360.117 681.5,359.5 Z"/></g>
<g><path style="opacity:1" fill="#51c43d" d="M 521.5,377.5 C 563.453,378.829 605.786,379.829 648.5,380.5C 631.202,398.299 613.702,415.965 596,433.5C 585.167,421.333 574.333,409.167 563.5,397C 562.207,396.51 560.873,396.343 559.5,396.5C 559.611,395.883 559.944,395.383 560.5,395C 547.171,394.5 533.837,394.333 520.5,394.5C 520.664,391.813 520.497,389.146 520,386.5C 519.667,389.833 519.333,393.167 519,396.5C 518.501,392.848 518.335,389.182 518.5,385.5C 518.733,382.458 519.733,379.792 521.5,377.5 Z"/></g>
<g><path style="opacity:1" fill="#fcfefc" d="M 656.5,395.5 C 645.5,405.833 634.833,416.5 624.5,427.5C 615.702,435.798 607.035,444.298 598.5,453C 596.5,453.667 594.5,453.667 592.5,453C 579.686,437.885 566.519,423.051 553,408.5C 552.333,406.833 552.333,405.167 553,403.5C 555.372,401.297 557.539,398.963 559.5,396.5C 560.873,396.343 562.207,396.51 563.5,397C 574.333,409.167 585.167,421.333 596,433.5C 613.702,415.965 631.202,398.299 648.5,380.5C 650.068,379.527 651.735,379.36 653.5,380C 658.078,382.212 660.578,385.712 661,390.5C 659.293,392.037 657.793,393.704 656.5,395.5 Z"/></g>
<g><path style="opacity:1" fill="#fce5cc" d="M 517.5,385.5 C 517.774,390.263 517.441,394.93 516.5,399.5C 514.435,399.483 512.435,399.15 510.5,398.5C 511.102,395.132 511.936,391.799 513,388.5C 514.271,387.117 515.771,386.117 517.5,385.5 Z"/></g>
<g><path style="opacity:1" fill="#a6d6ff" d="M 814.5,388.5 C 816.5,388.5 818.5,388.5 820.5,388.5C 820.673,395.883 821.34,403.217 822.5,410.5C 820.738,410.357 819.071,410.691 817.5,411.5C 815.521,403.96 814.521,396.294 814.5,388.5 Z"/></g>
<g><path style="opacity:1" fill="#59c845" d="M 695.5,387.5 C 700.017,401.853 700.684,416.52 697.5,431.5C 696.539,429.735 696.205,427.735 696.5,425.5C 673.925,425.827 651.425,425.494 629,424.5C 627.667,425.833 626.333,427.167 625,428.5C 624.601,428.272 624.435,427.938 624.5,427.5C 634.833,416.5 645.5,405.833 656.5,395.5C 668.584,395.41 681.251,395.41 694.5,395.5C 694.575,392.794 694.908,390.127 695.5,387.5 Z"/></g>
<g><path style="opacity:1" fill="#a5d6ff" d="M 865.5,406.5 C 868.833,406.5 872.167,406.5 875.5,406.5C 875.5,408.5 875.5,410.5 875.5,412.5C 868.075,412.302 860.742,412.968 853.5,414.5C 853.643,412.738 853.309,411.071 852.5,409.5C 856.87,408.139 861.203,407.139 865.5,406.5 Z"/></g>
<g><path style="opacity:1" fill="#a4d5ff" d="M 897.5,410.5 C 904.96,412.453 911.627,415.953 917.5,421C 916.094,423.449 914.094,424.449 911.5,424C 906.699,420.065 901.365,417.065 895.5,415C 896.267,413.53 896.933,412.03 897.5,410.5 Z"/></g>
<g><path style="opacity:1" fill="#a4d5ff" d="M 829.5,417.5 C 832.633,417.761 833.8,419.428 833,422.5C 827.231,426.453 821.397,429.953 815.5,433C 814.235,431.663 813.735,430.163 814,428.5C 819.069,424.582 824.236,420.915 829.5,417.5 Z"/></g>
<g><path style="opacity:1" fill="#e1eeec" d="M 514.5,410.5 C 514.244,417.224 514.577,423.891 515.5,430.5C 513.007,429.226 510.341,428.56 507.5,428.5C 509.845,422.409 512.178,416.409 514.5,410.5 Z"/></g>
<g><path style="opacity:1" fill="#10234c" d="M 507.5,428.5 C 510.341,428.56 513.007,429.226 515.5,430.5C 520.764,432.93 522.597,436.93 521,442.5C 520.617,443.056 520.117,443.389 519.5,443.5C 517.518,444.491 515.518,445.491 513.5,446.5C 514.999,451.049 513.332,454.049 508.5,455.5C 505.807,454.153 503.14,452.82 500.5,451.5C 494.901,444.059 495.234,436.893 501.5,430C 503.436,429.187 505.436,428.687 507.5,428.5 Z"/></g>
<g><path style="opacity:1" fill="#37aeff" d="M 331.5,430.5 C 333.167,430.5 334.833,430.5 336.5,430.5C 335.79,438.709 331.29,443.043 323,443.5C 317.513,443.176 313.68,440.509 311.5,435.5C 318.214,433.646 324.881,431.979 331.5,430.5 Z"/></g>
<g><path style="opacity:1" fill="#a4d6ff" d="M 825.5,431.5 C 826.675,431.281 827.675,431.614 828.5,432.5C 830.617,438.736 833.284,444.736 836.5,450.5C 835.167,451.5 833.833,452.5 832.5,453.5C 828.228,447.381 824.894,440.714 822.5,433.5C 823.602,432.824 824.602,432.158 825.5,431.5 Z"/></g>
<g><path style="opacity:1" fill="#63cd50" d="M 517.5,385.5 C 517.833,385.5 518.167,385.5 518.5,385.5C 518.335,389.182 518.501,392.848 519,396.5C 519.333,393.167 519.667,389.833 520,386.5C 520.497,389.146 520.664,391.813 520.5,394.5C 533.837,394.333 547.171,394.5 560.5,395C 559.944,395.383 559.611,395.883 559.5,396.5C 557.539,398.963 555.372,401.297 553,403.5C 552.333,405.167 552.333,406.833 553,408.5C 566.519,423.051 579.686,437.885 592.5,453C 594.5,453.667 596.5,453.667 598.5,453C 607.035,444.298 615.702,435.798 624.5,427.5C 624.435,427.938 624.601,428.272 625,428.5C 626.333,427.167 627.667,425.833 629,424.5C 651.425,425.494 673.925,425.827 696.5,425.5C 696.205,427.735 696.539,429.735 697.5,431.5C 695.348,440.957 692.015,449.957 687.5,458.5C 686.549,455.955 685.549,455.955 684.5,458.5C 631.476,459.186 578.476,458.853 525.5,457.5C 522.925,453.119 520.925,448.452 519.5,443.5C 520.117,443.389 520.617,443.056 521,442.5C 522.597,436.93 520.764,432.93 515.5,430.5C 514.577,423.891 514.244,417.224 514.5,410.5C 515.149,407.055 516.482,403.889 518.5,401C 517.584,400.722 516.918,400.222 516.5,399.5C 517.441,394.93 517.774,390.263 517.5,385.5 Z"/></g>
<g><path style="opacity:1" fill="#a3d5ff" d="M 794.5,441.5 C 795.933,442.833 797.267,444.333 798.5,446C 792.779,449.527 786.779,452.527 780.5,455C 776.99,454.993 775.99,453.326 777.5,450C 783.506,447.663 789.173,444.83 794.5,441.5 Z"/></g>
<g><path style="opacity:1" fill="#a3d5ff" d="M 921.5,443.5 C 923.167,443.5 924.833,443.5 926.5,443.5C 926.622,448.232 926.122,452.898 925,457.5C 924.712,460.743 923.378,463.41 921,465.5C 919.378,465.046 918.212,464.046 917.5,462.5C 920.257,456.471 921.59,450.138 921.5,443.5 Z"/></g>
<g><path style="opacity:1" fill="#fea861" d="M 510.5,398.5 C 512.435,399.15 514.435,399.483 516.5,399.5C 516.918,400.222 517.584,400.722 518.5,401C 516.482,403.889 515.149,407.055 514.5,410.5C 512.178,416.409 509.845,422.409 507.5,428.5C 505.436,428.687 503.436,429.187 501.5,430C 495.234,436.893 494.901,444.059 500.5,451.5C 500.034,455.162 500.701,458.495 502.5,461.5C 503.082,463.043 504.749,463.876 507.5,464C 506.552,464.483 505.552,464.649 504.5,464.5C 505.153,492.226 504.486,519.726 502.5,547C 504.708,547.191 506.708,547.691 508.5,548.5C 493.532,552.002 481.532,547.669 472.5,535.5C 471.457,527.103 472.124,518.77 474.5,510.5C 479.007,489.474 483.84,468.474 489,447.5C 494.741,430.409 501.908,414.076 510.5,398.5 Z"/></g>
<g><path style="opacity:1" fill="#e9f0ec" d="M 519.5,443.5 C 520.925,448.452 522.925,453.119 525.5,457.5C 531.168,467.824 538.501,476.824 547.5,484.5C 551.146,486.817 554.48,489.484 557.5,492.5C 554.411,491.261 551.411,489.761 548.5,488C 542.597,481.593 536.263,475.759 529.5,470.5C 522.605,461.962 513.605,458.962 502.5,461.5C 500.701,458.495 500.034,455.162 500.5,451.5C 503.14,452.82 505.807,454.153 508.5,455.5C 513.332,454.049 514.999,451.049 513.5,446.5C 515.518,445.491 517.518,444.491 519.5,443.5 Z"/></g>
<g><path style="opacity:1" fill="#0983fe" d="M 451.5,453.5 C 452.496,467.99 452.829,482.657 452.5,497.5C 442.33,491.248 431.997,485.248 421.5,479.5C 431.179,470.489 441.179,461.822 451.5,453.5 Z"/></g>
<g><path style="opacity:1" fill="#0c83fe" d="M 771.5,455.5 C 771.833,455.5 772.167,455.5 772.5,455.5C 781.167,463.167 789.833,470.833 798.5,478.5C 789.841,484.304 781.008,489.97 772,495.5C 771.5,482.171 771.333,468.837 771.5,455.5 Z"/></g>
<g><path style="opacity:1" fill="#6dd35a" d="M 687.5,458.5 C 682.827,467.496 676.494,475.163 668.5,481.5C 668.062,481.565 667.728,481.399 667.5,481C 668.5,480 669.5,479 670.5,478C 627.833,477.333 585.167,477.333 542.5,478C 544.208,480.043 546.208,481.71 548.5,483C 547.944,483.383 547.611,483.883 547.5,484.5C 538.501,476.824 531.168,467.824 525.5,457.5C 578.476,458.853 631.476,459.186 684.5,458.5C 685.549,455.955 686.549,455.955 687.5,458.5 Z"/></g>
<g><path style="opacity:1" fill="#fe9e5d" d="M 502.5,461.5 C 513.605,458.962 522.605,461.962 529.5,470.5C 529.209,476.416 528.209,482.083 526.5,487.5C 524.871,486.375 523.371,485.041 522,483.5C 519.768,501.493 518.268,519.493 517.5,537.5C 517.935,540.838 517.268,543.838 515.5,546.5C 513.079,546.878 510.746,547.545 508.5,548.5C 506.708,547.691 504.708,547.191 502.5,547C 504.486,519.726 505.153,492.226 504.5,464.5C 505.552,464.649 506.552,464.483 507.5,464C 504.749,463.876 503.082,463.043 502.5,461.5 Z"/></g>
<g><path style="opacity:1" fill="#a3d5ff" d="M 848.5,468.5 C 852.904,473.236 857.904,477.236 863.5,480.5C 864.564,482.757 864.064,484.757 862,486.5C 855.369,482.937 849.869,478.104 845.5,472C 846.544,470.826 847.544,469.659 848.5,468.5 Z"/></g>
<g><path style="opacity:1" fill="#fe8e59" d="M 529.5,470.5 C 536.263,475.759 542.597,481.593 548.5,488C 551.411,489.761 554.411,491.261 557.5,492.5C 562.458,495.036 567.458,497.369 572.5,499.5C 571.85,501.435 571.517,503.435 571.5,505.5C 554.343,505.439 539.343,499.439 526.5,487.5C 528.209,482.083 529.209,476.416 529.5,470.5 Z"/></g>
<g><path style="opacity:1" fill="#a5d6ff" d="M 901.5,479.5 C 905.235,479.546 906.568,481.213 905.5,484.5C 899.058,488.537 892.058,490.537 884.5,490.5C 884.5,488.5 884.5,486.5 884.5,484.5C 890.857,484.832 896.523,483.165 901.5,479.5 Z"/></g>
<g><path style="opacity:1" fill="#37aefe" d="M 421.5,479.5 C 431.997,485.248 442.33,491.248 452.5,497.5C 459.833,501.833 467.167,506.167 474.5,510.5C 472.124,518.77 471.457,527.103 472.5,535.5C 462.314,578.232 452.647,621.232 443.5,664.5C 437.773,669.224 432.773,674.558 428.5,680.5C 425.305,676.776 423.138,672.443 422,667.5C 421.5,604.834 421.333,542.168 421.5,479.5 Z"/></g>
<g><path style="opacity:1" fill="#38aefe" d="M 771.5,455.5 C 771.333,468.837 771.5,482.171 772,495.5C 781.008,489.97 789.841,484.304 798.5,478.5C 799.665,541.665 799.832,604.999 799,668.5C 797.828,672.858 795.661,676.525 792.5,679.5C 752.453,637.787 711.786,596.787 670.5,556.5C 703.496,536.363 736.662,516.363 770,496.5C 770.169,482.661 770.669,468.994 771.5,455.5 Z"/></g>
<g><path style="opacity:1" fill="#76d764" d="M 668.5,481.5 C 664.644,485.515 660.311,489.015 655.5,492C 634.405,504.257 611.738,508.424 587.5,504.5C 582.795,502.265 577.795,500.598 572.5,499.5C 567.458,497.369 562.458,495.036 557.5,492.5C 554.48,489.484 551.146,486.817 547.5,484.5C 547.611,483.883 547.944,483.383 548.5,483C 546.208,481.71 544.208,480.043 542.5,478C 585.167,477.333 627.833,477.333 670.5,478C 669.5,479 668.5,480 667.5,481C 667.728,481.399 668.062,481.565 668.5,481.5 Z"/></g>
<g><path style="opacity:1" fill="#fce4ca" d="M 572.5,499.5 C 577.795,500.598 582.795,502.265 587.5,504.5C 585.516,505.156 583.516,505.822 581.5,506.5C 578.217,505.673 574.884,505.34 571.5,505.5C 571.517,503.435 571.85,501.435 572.5,499.5 Z"/></g>
<g><path style="opacity:1" fill="#0d316c" d="M 472.5,535.5 C 481.532,547.669 493.532,552.002 508.5,548.5C 510.746,547.545 513.079,546.878 515.5,546.5C 512.619,563.788 509.952,581.121 507.5,598.5C 503.25,624.415 499.583,650.415 496.5,676.5C 493.5,676.5 490.5,676.5 487.5,676.5C 487.5,657.5 487.5,638.5 487.5,619.5C 487.667,607.162 487.5,594.829 487,582.5C 485.961,583.244 485.461,584.244 485.5,585.5C 476.227,606.38 467.227,627.38 458.5,648.5C 454.533,655.726 451.533,663.392 449.5,671.5C 449.005,668.657 447.505,666.324 445,664.5C 444.617,665.056 444.117,665.389 443.5,665.5C 443.5,665.167 443.5,664.833 443.5,664.5C 452.647,621.232 462.314,578.232 472.5,535.5 Z"/></g>
<g><path style="opacity:1" fill="#37adfd" d="M 517.5,537.5 C 528.763,543.442 539.763,549.775 550.5,556.5C 535.525,569.808 521.191,583.808 507.5,598.5C 509.952,581.121 512.619,563.788 515.5,546.5C 517.268,543.838 517.935,540.838 517.5,537.5 Z"/></g>
<g><path style="opacity:1" fill="#0883fe" d="M 550.5,556.5 C 570.182,568.676 590.182,580.342 610.5,591.5C 630.494,579.843 650.494,568.177 670.5,556.5C 711.786,596.787 752.453,637.787 792.5,679.5C 792.167,680.167 791.833,680.833 791.5,681.5C 696.167,681.5 600.833,681.5 505.5,681.5C 504.833,681.167 504.167,680.833 503.5,680.5C 501.004,679.42 498.67,678.086 496.5,676.5C 499.583,650.415 503.25,624.415 507.5,598.5C 521.191,583.808 535.525,569.808 550.5,556.5 Z"/></g>
<g><path style="opacity:1" fill="#2887d2" d="M 487.5,619.5 C 487.167,619.5 486.833,619.5 486.5,619.5C 486.828,607.988 486.495,596.654 485.5,585.5C 485.461,584.244 485.961,583.244 487,582.5C 487.5,594.829 487.667,607.162 487.5,619.5 Z"/></g>
<g><path style="opacity:1" fill="#36aefc" d="M 485.5,585.5 C 486.495,596.654 486.828,607.988 486.5,619.5C 477.139,629.193 467.806,638.86 458.5,648.5C 467.227,627.38 476.227,606.38 485.5,585.5 Z"/></g>
<g><path style="opacity:1" fill="#0882fc" d="M 486.5,619.5 C 486.833,619.5 487.167,619.5 487.5,619.5C 487.5,638.5 487.5,657.5 487.5,676.5C 487.5,678.167 487.5,679.833 487.5,681.5C 474.656,681.829 461.989,681.495 449.5,680.5C 449.5,677.5 449.5,674.5 449.5,671.5C 451.533,663.392 454.533,655.726 458.5,648.5C 467.806,638.86 477.139,629.193 486.5,619.5 Z"/></g>
<g><path style="opacity:1" fill="#03050b" d="M 449.5,671.5 C 449.5,674.5 449.5,677.5 449.5,680.5C 448.292,681.234 446.959,681.567 445.5,681.5C 440.827,676.773 440.16,671.439 443.5,665.5C 444.117,665.389 444.617,665.056 445,664.5C 447.505,666.324 449.005,668.657 449.5,671.5 Z"/></g>
<g><path style="opacity:1" fill="#0782fc" d="M 443.5,664.5 C 443.5,664.833 443.5,665.167 443.5,665.5C 440.16,671.439 440.827,676.773 445.5,681.5C 440.167,681.5 434.833,681.5 429.5,681.5C 429.5,680.833 429.167,680.5 428.5,680.5C 432.773,674.558 437.773,669.224 443.5,664.5 Z"/></g>
<g><path style="opacity:1" fill="#020305" d="M 487.5,676.5 C 490.5,676.5 493.5,676.5 496.5,676.5C 498.67,678.086 501.004,679.42 503.5,680.5C 498.36,681.488 493.026,681.821 487.5,681.5C 487.5,679.833 487.5,678.167 487.5,676.5 Z"/></g>
<g><path style="opacity:1" fill="#73c8ff" d="M 428.5,680.5 C 429.167,680.5 429.5,680.833 429.5,681.5C 351.002,682.499 272.335,682.833 193.5,682.5C 271.833,681.833 350.167,681.167 428.5,680.5 Z"/></g>
<g><path style="opacity:1" fill="#153f5e" d="M 503.5,680.5 C 504.167,680.833 504.833,681.167 505.5,681.5C 499.5,682.833 493.5,682.833 487.5,681.5C 493.026,681.821 498.36,681.488 503.5,680.5 Z"/></g>
<g><path style="opacity:1" fill="#36adfe" d="M 449.5,680.5 C 461.989,681.495 474.656,681.829 487.5,681.5C 493.5,682.833 499.5,682.833 505.5,681.5C 600.833,681.5 696.167,681.5 791.5,681.5C 870.541,681.173 949.541,681.506 1028.5,682.5C 1045.73,687.934 1050.56,698.601 1043,714.5C 1039.17,718.993 1034.33,721.826 1028.5,723C 749.5,723.667 470.5,723.667 191.5,723C 173.494,716.751 169.327,705.584 179,689.5C 181.015,688.303 182.849,686.97 184.5,685.5C 187.285,683.905 190.285,682.905 193.5,682.5C 272.335,682.833 351.002,682.499 429.5,681.5C 434.833,681.5 440.167,681.5 445.5,681.5C 446.959,681.567 448.292,681.234 449.5,680.5 Z"/></g>
</svg>
